<?xml version="1.0" encoding="UTF-8"?>
<svg version="1.1" xmlns="http://www.w3.org/2000/svg" width="126" height="126">
<path d="M0 0 C4.35717368 2.51375405 6.80693351 5.8759231 8.6875 10.5 C9.82622997 15.27788798 10.070166 19.73748378 8.6875 24.5 C9.6775 25.16 10.6675 25.82 11.6875 26.5 C18.16035213 31.96889955 22.97730047 42.23386783 24.6875 50.5 C25.40055551 61.74523601 25.12050103 70.85049846 18.6875 80.5 C21.56835938 80.64648438 21.56835938 80.64648438 24.44921875 80.79296875 C27.98853071 81.91097131 29.46305843 83.54811627 31.6875 86.5 C32.40174142 89.5235366 32.38784997 92.40562808 32.3125 95.5 C32.33183594 96.2940625 32.35117188 97.088125 32.37109375 97.90625 C32.36464844 98.6796875 32.35820313 99.453125 32.3515625 100.25 C32.34592285 100.94609375 32.3402832 101.6421875 32.33447266 102.359375 C31.31094783 105.74589035 29.38321294 107.26793207 26.6875 109.5 C23.37974548 110.12145996 23.37974548 110.12145996 19.57397461 110.11523438 C18.87741257 110.12078339 18.18085052 110.1263324 17.46318054 110.13204956 C15.1713582 110.14381625 12.88152634 110.11960728 10.58984375 110.09375 C8.99231557 110.09203818 7.39478459 110.09210531 5.79725647 110.09387207 C2.45400004 110.09222061 -0.88858439 110.07355383 -4.23168945 110.04199219 C-8.51474685 110.0022824 -12.79692589 109.99795159 -17.08013248 110.00545502 C-20.37702975 110.00852565 -23.6737299 109.99640151 -26.97057915 109.97932434 C-28.54980673 109.9722992 -30.12905665 109.96916922 -31.70829964 109.97001648 C-33.91539972 109.96821681 -36.12145072 109.94682362 -38.32836914 109.91992188 C-39.58347794 109.91150269 -40.83858673 109.9030835 -42.13172913 109.89440918 C-45.53767927 109.47207822 -46.93335884 108.93073786 -49.3125 106.5 C-50.53200118 102.84149645 -50.53503359 99.43596431 -50.5625 95.625 C-50.583125 94.91730469 -50.60375 94.20960937 -50.625 93.48046875 C-50.65860509 88.968985 -50.25542794 85.98623771 -47.3125 82.5 C-45.05078125 81.35546875 -45.05078125 81.35546875 -42.625 80.6875 C-41.41263672 80.33751953 -41.41263672 80.33751953 -40.17578125 79.98046875 C-39.56089844 79.82191406 -38.94601563 79.66335937 -38.3125 79.5 C-38.93125 78.654375 -39.55 77.80875 -40.1875 76.9375 C-45.46344477 68.8364926 -45.43047717 59.09512585 -43.84765625 49.7578125 C-41.61124044 41.47381074 -37.64760543 33.63374781 -31.5 27.625 C-27.43842155 23.33285159 -27.68909836 19.18788251 -27.53125 13.4921875 C-27.13120723 8.02017394 -24.15834371 5.13889806 -20.25 1.6875 C-14.35646552 -2.70130227 -6.71198371 -2.89661654 0 0 Z " fill="#36384E" transform="translate(72.3125,6.5)"/>
<path d="M0 0 C4.35717368 2.51375405 6.80693351 5.8759231 8.6875 10.5 C9.82622997 15.27788798 10.070166 19.73748378 8.6875 24.5 C9.6775 25.16 10.6675 25.82 11.6875 26.5 C18.16035213 31.96889955 22.97730047 42.23386783 24.6875 50.5 C25.40055551 61.74523601 25.12050103 70.85049846 18.6875 80.5 C21.56835938 80.64648438 21.56835938 80.64648438 24.44921875 80.79296875 C27.98853071 81.91097131 29.46305843 83.54811627 31.6875 86.5 C32.40174142 89.5235366 32.38784997 92.40562808 32.3125 95.5 C32.33183594 96.2940625 32.35117188 97.088125 32.37109375 97.90625 C32.36464844 98.6796875 32.35820313 99.453125 32.3515625 100.25 C32.34592285 100.94609375 32.3402832 101.6421875 32.33447266 102.359375 C31.31094783 105.74589035 29.38321294 107.26793207 26.6875 109.5 C23.37974548 110.12145996 23.37974548 110.12145996 19.57397461 110.11523438 C18.87741257 110.12078339 18.18085052 110.1263324 17.46318054 110.13204956 C15.1713582 110.14381625 12.88152634 110.11960728 10.58984375 110.09375 C8.99231557 110.09203818 7.39478459 110.09210531 5.79725647 110.09387207 C2.45400004 110.09222061 -0.88858439 110.07355383 -4.23168945 110.04199219 C-8.51474685 110.0022824 -12.79692589 109.99795159 -17.08013248 110.00545502 C-20.37702975 110.00852565 -23.6737299 109.99640151 -26.97057915 109.97932434 C-28.54980673 109.9722992 -30.12905665 109.96916922 -31.70829964 109.97001648 C-33.91539972 109.96821681 -36.12145072 109.94682362 -38.32836914 109.91992188 C-39.58347794 109.91150269 -40.83858673 109.9030835 -42.13172913 109.89440918 C-45.53767927 109.47207822 -46.93335884 108.93073786 -49.3125 106.5 C-50.53200118 102.84149645 -50.53503359 99.43596431 -50.5625 95.625 C-50.583125 94.91730469 -50.60375 94.20960937 -50.625 93.48046875 C-50.65860509 88.968985 -50.25542794 85.98623771 -47.3125 82.5 C-45.05078125 81.35546875 -45.05078125 81.35546875 -42.625 80.6875 C-41.41263672 80.33751953 -41.41263672 80.33751953 -40.17578125 79.98046875 C-39.56089844 79.82191406 -38.94601563 79.66335937 -38.3125 79.5 C-38.93125 78.654375 -39.55 77.80875 -40.1875 76.9375 C-45.46344477 68.8364926 -45.43047717 59.09512585 -43.84765625 49.7578125 C-41.61124044 41.47381074 -37.64760543 33.63374781 -31.5 27.625 C-27.43842155 23.33285159 -27.68909836 19.18788251 -27.53125 13.4921875 C-27.13120723 8.02017394 -24.15834371 5.13889806 -20.25 1.6875 C-14.35646552 -2.70130227 -6.71198371 -2.89661654 0 0 Z M-18.3125 9.5 C-20.80705917 13.24183875 -20.68856522 15.06243036 -20.3125 19.5 C-18.93035878 22.85161246 -18.93035878 22.85161246 -17.3125 25.5 C-17.88097656 25.73589844 -18.44945313 25.97179687 -19.03515625 26.21484375 C-27.59479165 31.04523834 -33.16573029 40.97973502 -36.625 49.875 C-38.29323515 58.671149 -38.14066169 66.83896089 -33.0234375 74.40625 C-29.65645719 78.65548719 -26.1409132 81.0857934 -21.3125 83.5 C-25.87285392 85.13377165 -30.43799661 86.22296253 -35.1875 87.125 C-36.22003906 87.32609375 -36.22003906 87.32609375 -37.2734375 87.53125 C-38.95243755 87.85772223 -40.63237536 88.17936553 -42.3125 88.5 C-42.3125 92.79 -42.3125 97.08 -42.3125 101.5 C-20.5325 101.5 1.2475 101.5 23.6875 101.5 C23.6875 97.21 23.6875 92.92 23.6875 88.5 C16.4275 87.18 9.1675 85.86 1.6875 84.5 C5.6875 81.5 5.6875 81.5 7.6875 80.02734375 C14.09277885 74.93564748 16.93257074 69.74855581 18.09765625 61.6484375 C18.65889414 50.74027539 14.5019827 40.87207875 7.6875 32.5 C1.69822867 35.06128666 -1.73683099 40.62304021 -4.1875 46.5 C-5.5697764 50.57407782 -5.54137505 54.22766574 -5.3125 58.5 C-7.6225 58.5 -9.9325 58.5 -12.3125 58.5 C-12.27018761 45.95437599 -9.03212968 35.12692795 -1.4375 25.0625 C0.81743672 22.05258446 2.18438113 19.98575745 2.375 16.1875 C1.47404365 11.35509776 -0.1899673 8.98577289 -4.1875 6.1875 C-10.10472171 4.27310474 -13.55731881 5.7174695 -18.3125 9.5 Z " fill="#EEF1F5" transform="translate(72.3125,6.5)"/>
</svg>
