<?xml version="1.0" encoding="UTF-8"?>
<svg version="1.1" xmlns="http://www.w3.org/2000/svg" width="126" height="126">
<path d="M0 0 C2.08828839 1.86237092 3.78217641 3.57193716 5.5625 5.6875 C6.01818359 6.20505859 6.47386719 6.72261719 6.94335938 7.25585938 C8.77898045 9.35259298 10.58205814 11.4588026 12.28564453 13.66479492 C14.86116354 16.95995895 16.74305981 18.72625174 20.75 19.9375 C31.95624336 24.02761256 38.93234935 32.4056097 44.46875 42.7421875 C51.91971282 59.14339224 53.08264322 77.25825812 54 95 C54.0621167 96.18722656 54.0621167 96.18722656 54.12548828 97.3984375 C54.65342607 108.9865394 54.65342607 108.9865394 51 114 C48.10073411 115.44963295 45.5578412 115.15138716 42.31884766 115.17700195 C41.63247726 115.18357315 40.94610687 115.19014435 40.23893738 115.19691467 C37.96397802 115.21665099 35.68908463 115.2283102 33.4140625 115.23828125 C32.24933474 115.24439454 32.24933474 115.24439454 31.06107712 115.25063133 C26.95217911 115.27149234 22.84331452 115.28579455 18.734375 115.29516602 C14.48823151 115.3062377 10.24261103 115.34064567 5.9966526 115.38033772 C2.73327655 115.40646712 -0.52997412 115.41485448 -3.79344559 115.41844749 C-5.3587663 115.42332211 -6.92408109 115.43496104 -8.48929977 115.45348549 C-10.67997612 115.477803 -12.86928895 115.47692654 -15.06005859 115.4699707 C-16.92964737 115.47877007 -16.92964737 115.47877007 -18.83700562 115.48774719 C-22.58418486 114.90991621 -23.76757301 114.01370159 -26 111 C-26.42578125 108.125 -26.42578125 108.125 -26.3125 105 C-26.28800781 103.96875 -26.26351563 102.9375 -26.23828125 101.875 C-26.03727466 99.44974019 -25.68754659 97.32536083 -25 95 C-26.134375 95.226875 -27.26875 95.45375 -28.4375 95.6875 C-34.59237822 96.45140332 -39.54238773 94.41995375 -44.8125 91.375 C-48.52367663 87.34572252 -50.75821369 83.02469931 -51.19921875 77.5078125 C-50.7202469 68.72210024 -46.5063597 62.70181909 -40.9375 56.1875 C-37.19449858 51.67490951 -35.61955519 47.52501324 -33.9765625 41.953125 C-31.24469762 33.6919656 -25.87813623 26.33264408 -19 21 C-16.7578125 20.28515625 -16.7578125 20.28515625 -15 20 C-14.96132812 19.07380859 -14.96132812 19.07380859 -14.921875 18.12890625 C-14.50918555 11.96670236 -13.53258331 6.2035513 -10 1 C-6.59052108 -1.5400996 -3.96456856 -1.25486344 0 0 Z " fill="#35374D" transform="translate(57,1)"/>
<path d="M0 0 C2.08828839 1.86237092 3.78217641 3.57193716 5.5625 5.6875 C6.01818359 6.20505859 6.47386719 6.72261719 6.94335938 7.25585938 C8.77898045 9.35259298 10.58205814 11.4588026 12.28564453 13.66479492 C14.86116354 16.95995895 16.74305981 18.72625174 20.75 19.9375 C31.95624336 24.02761256 38.93234935 32.4056097 44.46875 42.7421875 C51.91971282 59.14339224 53.08264322 77.25825812 54 95 C54.0621167 96.18722656 54.0621167 96.18722656 54.12548828 97.3984375 C54.65342607 108.9865394 54.65342607 108.9865394 51 114 C48.10073411 115.44963295 45.5578412 115.15138716 42.31884766 115.17700195 C41.63247726 115.18357315 40.94610687 115.19014435 40.23893738 115.19691467 C37.96397802 115.21665099 35.68908463 115.2283102 33.4140625 115.23828125 C32.24933474 115.24439454 32.24933474 115.24439454 31.06107712 115.25063133 C26.95217911 115.27149234 22.84331452 115.28579455 18.734375 115.29516602 C14.48823151 115.3062377 10.24261103 115.34064567 5.9966526 115.38033772 C2.73327655 115.40646712 -0.52997412 115.41485448 -3.79344559 115.41844749 C-5.3587663 115.42332211 -6.92408109 115.43496104 -8.48929977 115.45348549 C-10.67997612 115.477803 -12.86928895 115.47692654 -15.06005859 115.4699707 C-16.92964737 115.47877007 -16.92964737 115.47877007 -18.83700562 115.48774719 C-22.58418486 114.90991621 -23.76757301 114.01370159 -26 111 C-26.42578125 108.125 -26.42578125 108.125 -26.3125 105 C-26.28800781 103.96875 -26.26351563 102.9375 -26.23828125 101.875 C-26.03727466 99.44974019 -25.68754659 97.32536083 -25 95 C-26.134375 95.226875 -27.26875 95.45375 -28.4375 95.6875 C-34.59237822 96.45140332 -39.54238773 94.41995375 -44.8125 91.375 C-48.52367663 87.34572252 -50.75821369 83.02469931 -51.19921875 77.5078125 C-50.7202469 68.72210024 -46.5063597 62.70181909 -40.9375 56.1875 C-37.19449858 51.67490951 -35.61955519 47.52501324 -33.9765625 41.953125 C-31.24469762 33.6919656 -25.87813623 26.33264408 -19 21 C-16.7578125 20.28515625 -16.7578125 20.28515625 -15 20 C-14.96132812 19.07380859 -14.96132812 19.07380859 -14.921875 18.12890625 C-14.50918555 11.96670236 -13.53258331 6.2035513 -10 1 C-6.59052108 -1.5400996 -3.96456856 -1.25486344 0 0 Z M-5 8 C-6.8466683 11.14590528 -7.24774283 13.43150052 -7.1875 17.0625 C-7.17783203 18.34833984 -7.17783203 18.34833984 -7.16796875 19.66015625 C-7.08590034 22.15477968 -7.08590034 22.15477968 -6 25 C-7.10021484 24.90912109 -7.10021484 24.90912109 -8.22265625 24.81640625 C-13.8895926 25.19101386 -18.06429758 29.83343399 -21.703125 33.90625 C-25.56272936 39.18781386 -27.48577233 44.92810701 -29.60351562 51.04003906 C-31.58129665 56.4827897 -34.2713428 60.55969625 -38.16796875 64.88671875 C-41.90937368 69.20249715 -43.53013905 72.41831159 -43.28515625 78.07421875 C-42.69184227 82.08112004 -40.83588816 84.26245162 -37.875 86.875 C-33.56571258 88.5612429 -30.37470295 88.56726118 -26 87 C-23.15156067 84.96540048 -20.58852418 82.73146593 -17.97265625 80.40625 C-14.85210062 77.88028118 -11.77194844 76.16926316 -8.1875 74.375 C-1.9328294 71.17701147 2.69036316 67.92891051 5 61 C4.4881693 68.16562976 3.31759138 74.08643776 -2.27734375 79 C-4.0205817 80.34216215 -5.77071409 81.67541327 -7.52734375 83 C-13.21316377 87.59895711 -17.43712914 93.788859 -19 101 C-19 102.98 -19 104.96 -19 107 C2.45 107 23.9 107 46 107 C46.62775756 68.30570526 46.62775756 68.30570526 29.75 34.125 C25.13312963 29.84670012 19.41389856 27.13620463 13.4765625 25.16015625 C10.35786696 23.69919004 8.74044559 21.85333466 6.5 19.25 C5.72527344 18.36054688 4.95054688 17.47109375 4.15234375 16.5546875 C2.4315857 14.51226324 0.73856495 12.45391735 -0.9375 10.375 C-1.9584375 9.199375 -1.9584375 9.199375 -3 8 C-3.66 8 -4.32 8 -5 8 Z " fill="#EEF1F5" transform="translate(57,1)"/>
<path d="M0 0 C0.928125 0.20625 1.85625 0.4125 2.8125 0.625 C3.4375 4 3.4375 4 3.8125 7.625 C1.8125 9.625 1.8125 9.625 -1.1875 9.875 C-4.1875 9.625 -4.1875 9.625 -6.1875 7.625 C-6.5 4.625 -6.5 4.625 -6.1875 1.625 C-3.1875 -0.375 -3.1875 -0.375 0 0 Z " fill="#EDF0F4" transform="translate(50.1875,42.375)"/>
</svg>
