<?xml version="1.0" encoding="UTF-8"?>
<svg version="1.1" xmlns="http://www.w3.org/2000/svg" width="126" height="126">
<path d="M0 0 C3.88790978 2.08795155 6.71516682 4.1919447 9 8 C9 8.66 9 9.32 9 10 C9.66 10 10.32 10 11 10 C11.20625 9.278125 11.4125 8.55625 11.625 7.8125 C13.3867394 4.20894213 15.52479415 1.92655335 19 0 C24.39110811 -1.63427307 29.1360869 -1.25797111 34.27734375 0.98046875 C38.14281923 3.26819914 40.2876534 6.96270004 42 11 C42.1953125 13.359375 42.1953125 13.359375 42.125 15.75 C42.10695313 16.54921875 42.08890625 17.3484375 42.0703125 18.171875 C42.04710938 18.77515625 42.02390625 19.3784375 42 20 C44.23767092 19.47928412 46.11029982 18.9464258 48.1875 17.9375 C53.37628623 16.20790459 58.18012653 16.34759253 63.3125 18.1875 C67.70854767 21.15227634 70.70539906 24.82159623 72 30 C72.10102816 36.05046411 70.94863122 40.26164254 67 45 C64.15238542 47.66389751 61.84474002 48.46600833 58 49 C57.90332031 49.91910156 57.80664062 50.83820312 57.70703125 51.78515625 C56.93630871 57.15321848 55.27429786 62.2646055 53.6875 67.4375 C53.24374023 68.93506836 53.24374023 68.93506836 52.79101562 70.46289062 C51.00818314 76.31966862 48.90937282 81.61155895 46 87 C46.639375 87.28875 47.27875 87.5775 47.9375 87.875 C50 89 50 89 51 91 C51.20411054 93.95377112 51.32382545 96.85600689 51.375 99.8125 C51.43107422 101.02389648 51.43107422 101.02389648 51.48828125 102.25976562 C51.49988281 103.04673828 51.51148437 103.83371094 51.5234375 104.64453125 C51.5531665 105.71731323 51.5531665 105.71731323 51.58349609 106.81176758 C50.66114836 110.27076455 48.72515977 111.74941642 46 114 C42.69224548 114.62145996 42.69224548 114.62145996 38.88647461 114.61523438 C38.18991257 114.62078339 37.49335052 114.6263324 36.77568054 114.63204956 C34.4838582 114.64381625 32.19402634 114.61960728 29.90234375 114.59375 C28.30481557 114.59203818 26.70728459 114.59210531 25.10975647 114.59387207 C21.76650004 114.59222061 18.42391561 114.57355383 15.08081055 114.54199219 C10.79775315 114.5022824 6.51557411 114.49795159 2.23236752 114.50545502 C-1.06452975 114.50852565 -4.3612299 114.49640151 -7.65807915 114.47932434 C-9.23730673 114.4722992 -10.81655665 114.46916922 -12.39579964 114.47001648 C-14.60289972 114.46821681 -16.80895072 114.44682362 -19.01586914 114.41992188 C-20.27097794 114.41150269 -21.52608673 114.4030835 -22.81922913 114.39440918 C-26.22517927 113.97207822 -27.62085884 113.43073786 -30 111 C-31.21950118 107.34149645 -31.22253359 103.93596431 -31.25 100.125 C-31.270625 99.41730469 -31.29125 98.70960937 -31.3125 97.98046875 C-31.34600377 93.48258723 -30.85590374 90.53522065 -28 87 C-27.34 87 -26.68 87 -26 87 C-26.35191406 86.34 -26.70382813 85.68 -27.06640625 85 C-29.86712679 79.38393374 -32.06675347 74.0315893 -33.67578125 67.96875 C-33.95929443 66.90527344 -34.24280762 65.84179688 -34.53491211 64.74609375 C-35.0877966 62.60975193 -35.61415296 60.46633919 -36.11157227 58.31640625 C-37.45615211 53.12999091 -38.36625492 49.83208416 -43.07421875 46.953125 C-43.75572998 46.62473633 -44.43724121 46.29634766 -45.1394043 45.95800781 C-48.31131824 44.32481134 -49.48546274 42.15023749 -51 39 C-52.37478458 34.16579017 -52.48815487 30.30036247 -50.375 25.6875 C-47.83240602 21.27095268 -44.87081252 18.62360417 -40 17 C-33.09991699 16.15480911 -28.0691862 17.78605742 -22 21 C-22.04640625 20.443125 -22.0928125 19.88625 -22.140625 19.3125 C-22.42295534 13.34323003 -21.60311014 8.87025897 -18 4 C-11.9469643 -0.81772229 -7.38010831 -1.64002407 0 0 Z " fill="#36384D" transform="translate(53,2)"/>
<path d="M0 0 C3.88790978 2.08795155 6.71516682 4.1919447 9 8 C9 8.66 9 9.32 9 10 C9.66 10 10.32 10 11 10 C11.20625 9.278125 11.4125 8.55625 11.625 7.8125 C13.3867394 4.20894213 15.52479415 1.92655335 19 0 C24.39110811 -1.63427307 29.1360869 -1.25797111 34.27734375 0.98046875 C38.14281923 3.26819914 40.2876534 6.96270004 42 11 C42.1953125 13.359375 42.1953125 13.359375 42.125 15.75 C42.10695313 16.54921875 42.08890625 17.3484375 42.0703125 18.171875 C42.04710938 18.77515625 42.02390625 19.3784375 42 20 C44.23767092 19.47928412 46.11029982 18.9464258 48.1875 17.9375 C53.37628623 16.20790459 58.18012653 16.34759253 63.3125 18.1875 C67.70854767 21.15227634 70.70539906 24.82159623 72 30 C72.10102816 36.05046411 70.94863122 40.26164254 67 45 C64.15238542 47.66389751 61.84474002 48.46600833 58 49 C57.90332031 49.91910156 57.80664062 50.83820312 57.70703125 51.78515625 C56.93630871 57.15321848 55.27429786 62.2646055 53.6875 67.4375 C53.24374023 68.93506836 53.24374023 68.93506836 52.79101562 70.46289062 C51.00818314 76.31966862 48.90937282 81.61155895 46 87 C46.639375 87.28875 47.27875 87.5775 47.9375 87.875 C50 89 50 89 51 91 C51.20411054 93.95377112 51.32382545 96.85600689 51.375 99.8125 C51.43107422 101.02389648 51.43107422 101.02389648 51.48828125 102.25976562 C51.49988281 103.04673828 51.51148437 103.83371094 51.5234375 104.64453125 C51.5531665 105.71731323 51.5531665 105.71731323 51.58349609 106.81176758 C50.66114836 110.27076455 48.72515977 111.74941642 46 114 C42.69224548 114.62145996 42.69224548 114.62145996 38.88647461 114.61523438 C38.18991257 114.62078339 37.49335052 114.6263324 36.77568054 114.63204956 C34.4838582 114.64381625 32.19402634 114.61960728 29.90234375 114.59375 C28.30481557 114.59203818 26.70728459 114.59210531 25.10975647 114.59387207 C21.76650004 114.59222061 18.42391561 114.57355383 15.08081055 114.54199219 C10.79775315 114.5022824 6.51557411 114.49795159 2.23236752 114.50545502 C-1.06452975 114.50852565 -4.3612299 114.49640151 -7.65807915 114.47932434 C-9.23730673 114.4722992 -10.81655665 114.46916922 -12.39579964 114.47001648 C-14.60289972 114.46821681 -16.80895072 114.44682362 -19.01586914 114.41992188 C-20.27097794 114.41150269 -21.52608673 114.4030835 -22.81922913 114.39440918 C-26.22517927 113.97207822 -27.62085884 113.43073786 -30 111 C-31.21950118 107.34149645 -31.22253359 103.93596431 -31.25 100.125 C-31.270625 99.41730469 -31.29125 98.70960937 -31.3125 97.98046875 C-31.34600377 93.48258723 -30.85590374 90.53522065 -28 87 C-27.34 87 -26.68 87 -26 87 C-26.35191406 86.34 -26.70382813 85.68 -27.06640625 85 C-29.86712679 79.38393374 -32.06675347 74.0315893 -33.67578125 67.96875 C-33.95929443 66.90527344 -34.24280762 65.84179688 -34.53491211 64.74609375 C-35.0877966 62.60975193 -35.61415296 60.46633919 -36.11157227 58.31640625 C-37.45615211 53.12999091 -38.36625492 49.83208416 -43.07421875 46.953125 C-43.75572998 46.62473633 -44.43724121 46.29634766 -45.1394043 45.95800781 C-48.31131824 44.32481134 -49.48546274 42.15023749 -51 39 C-52.37478458 34.16579017 -52.48815487 30.30036247 -50.375 25.6875 C-47.83240602 21.27095268 -44.87081252 18.62360417 -40 17 C-33.09991699 16.15480911 -28.0691862 17.78605742 -22 21 C-22.04640625 20.443125 -22.0928125 19.88625 -22.140625 19.3125 C-22.42295534 13.34323003 -21.60311014 8.87025897 -18 4 C-11.9469643 -0.81772229 -7.38010831 -1.64002407 0 0 Z M-14 11 C-14.51814267 14.26429885 -14.77797561 15.93064312 -14 19 C-11.79086457 22.04475302 -11.79086457 22.04475302 -9 24 C-8.34 24 -7.68 24 -7 24 C-7.09087891 24.65484375 -7.18175781 25.3096875 -7.27539062 25.984375 C-7.68914233 28.98884892 -8.09462541 31.99438482 -8.5 35 C-8.64308594 36.02996094 -8.78617188 37.05992188 -8.93359375 38.12109375 C-9.69403874 43.80632532 -10.16544234 49.26466539 -10 55 C-16.40900977 50.43492321 -22.2190161 45.33082532 -28 40 C-27.67 39.01 -27.34 38.02 -27 37 C-26.53606798 32.94312123 -26.53606798 32.94312123 -27 29 C-29.40475664 25.75990314 -29.40475664 25.75990314 -33 24 C-36.98721529 23.93125491 -39.1250277 24.41668513 -42.4375 26.625 C-44.64220216 29.97614728 -44.55263296 32.06249016 -44 36 C-42.5714939 38.9315113 -42.5714939 38.9315113 -40 41 C-38.84290527 41.24210205 -37.68581055 41.4842041 -36.49365234 41.73364258 C-33 43 -33 43 -31.52197266 45.8347168 C-31.2388623 47.02750244 -30.95575195 48.22028809 -30.6640625 49.44921875 C-30.49844818 50.09472183 -30.33283386 50.74022491 -30.16220093 51.4052887 C-29.80920678 52.7826392 -29.46835539 54.1631493 -29.13867188 55.54626465 C-26.15053287 68.00228799 -22.43207131 78.44911305 -15 89 C-14.67 89.99 -14.34 90.98 -14 92 C-18.455 92.495 -18.455 92.495 -23 93 C-23 97.29 -23 101.58 -23 106 C-1.22 106 20.56 106 43 106 C43 101.71 43 97.42 43 93 C40.03 92.34 37.06 91.68 34 91 C34.61746094 90.13246094 35.23492187 89.26492187 35.87109375 88.37109375 C43.21219784 77.34410409 46.6692377 66.10216454 49.69116211 53.33959961 C49.86089539 52.67274139 50.03062866 52.00588318 50.20550537 51.31881714 C50.67202379 49.48576137 51.10596889 47.6445047 51.5378418 45.80297852 C53 43 53 43 56.49145508 41.70288086 C57.6492749 41.47093018 58.80709473 41.23897949 60 41 C62.56338689 39.52006844 62.56338689 39.52006844 64 37 C64.65595335 32.90143201 64.65595335 32.90143201 64 29 C61.59524336 25.75990314 61.59524336 25.75990314 58 24 C54.01278471 23.93125491 51.8749723 24.41668513 48.5625 26.625 C46.41144213 29.89460796 46.65671072 32.15516009 47 36 C47.31333981 37.33817303 47.64207453 38.6730568 48 40 C45.94248775 41.94303866 43.87934504 43.87943134 41.8125 45.8125 C41.23435547 46.35970703 40.65621094 46.90691406 40.06054688 47.47070312 C36.88571032 50.43029653 33.85442551 52.93124055 30 55 C30.05220703 54.15695313 30.05220703 54.15695313 30.10546875 53.296875 C30.42459116 43.38888406 28.61444401 33.73962012 27 24 C27.78375 23.731875 28.5675 23.46375 29.375 23.1875 C32.28114923 22.15185568 32.28114923 22.15185568 34 19 C34.33505659 15.98449073 34.56038591 13.90116456 34 11 C31.32805171 7.76127481 29.62071155 7.11084135 25.5 6.375 C21.79549063 6.72057901 21.79549063 6.72057901 19.0625 9.625 C16.83050234 13.27735981 16.18325257 14.82551314 17 19 C17.680625 19.680625 18.36125 20.36125 19.0625 21.0625 C19.701875 21.701875 20.34125 22.34125 21 23 C20.60806783 26.62163716 19.3985387 29.6986894 17.93359375 33.01171875 C17.3293457 34.39520508 17.3293457 34.39520508 16.71289062 35.80664062 C16.29201172 36.75732422 15.87113281 37.70800781 15.4375 38.6875 C14.59960208 40.58580288 13.76480304 42.48547761 12.93359375 44.38671875 C12.56290771 45.22420654 12.19222168 46.06169434 11.81030273 46.92456055 C10.87877047 48.93917145 10.87877047 48.93917145 11 51 C10.34 51 9.68 51 9 51 C8.649375 49.845 8.29875 48.69 7.9375 47.5 C6.86948961 44.23345116 5.6263588 41.10649929 4.20703125 37.98046875 C3.88677979 37.2740625 3.56652832 36.56765625 3.23657227 35.83984375 C2.58446123 34.41717339 1.92232992 32.99904892 1.24975586 31.5859375 C-0.42661892 27.92677771 -1.37469191 25.82477946 0 22 C0.515625 21.38125 1.03125 20.7625 1.5625 20.125 C3.56006244 17.17208161 3.57121542 15.49869448 3 12 C1.06307631 8.97966263 1.06307631 8.97966263 -2 7 C-7.30670762 6.14713628 -10.52445854 6.78722247 -14 11 Z " fill="#EFF2F5" transform="translate(53,2)"/>
</svg>
