<?xml version="1.0" encoding="UTF-8"?>
<svg version="1.1" xmlns="http://www.w3.org/2000/svg" width="126" height="126">
<path d="M0 0 C1.22976562 -0.02416992 1.22976562 -0.02416992 2.484375 -0.04882812 C3.27328125 -0.04947266 4.0621875 -0.05011719 4.875 -0.05078125 C5.59429687 -0.05376221 6.31359375 -0.05674316 7.0546875 -0.05981445 C9.56984653 0.42156325 10.46316428 1.29600157 12 3.3125 C12.1875 6 12.1875 6 12 8.3125 C13.258125 8.395 14.51625 8.4775 15.8125 8.5625 C18.68197513 8.93324634 19.74290589 9.09557684 22 11 C23.24575353 13.88080503 23.06806837 16.20262633 23 19.3125 C23.76183594 19.26609375 24.52367188 19.2196875 25.30859375 19.171875 C34.01272597 18.8676107 40.14233938 19.96919413 46.8125 25.75 C47.8953125 27.0184375 47.8953125 27.0184375 49 28.3125 C49.70125 29.034375 50.4025 29.75625 51.125 30.5 C55.39489147 36.90483721 57.06506811 44.70145147 56 52.3125 C53.04313222 65.87733976 46.18672665 74.48358729 35.625 83.125 C32.9683878 85.0417087 32.9683878 85.0417087 32 87.3125 C32.61488281 87.41046875 33.22976562 87.5084375 33.86328125 87.609375 C34.67152344 87.75890625 35.47976562 87.9084375 36.3125 88.0625 C37.11300781 88.20171875 37.91351563 88.3409375 38.73828125 88.484375 C41.76891085 89.59403558 42.55075727 90.40944279 44 93.3125 C44.47902111 96.29987043 44.50970557 99.2291408 44.5 102.25 C44.52835937 103.04857422 44.55671875 103.84714844 44.5859375 104.66992188 C44.58980469 105.8368457 44.58980469 105.8368457 44.59375 107.02734375 C44.60083984 107.72980225 44.60792969 108.43226074 44.61523438 109.15600586 C43.63365108 112.59661111 41.74285865 114.07388164 39 116.3125 C36.20818166 116.80327628 34.02768845 116.98916129 31.24389648 116.94360352 C30.47905945 116.95075882 29.71422241 116.95791412 28.9262085 116.96528625 C26.40722262 116.98214548 23.89002336 116.96279067 21.37109375 116.94140625 C19.61662143 116.94223513 17.86214919 116.94469522 16.10768127 116.94871521 C12.43491171 116.95157118 8.76275268 116.93689057 5.09008789 116.90942383 C0.38318866 116.87531586 -4.32262084 116.8813693 -9.02957249 116.9000864 C-12.65074239 116.91065537 -16.27165877 116.90172001 -19.8928051 116.88670158 C-21.62833847 116.88152022 -23.36389831 116.88200103 -25.09942818 116.88824654 C-27.52462838 116.89369868 -29.94826861 116.87332686 -32.37329102 116.84594727 C-33.44799904 116.85573608 -33.44799904 116.85573608 -34.54441833 116.86572266 C-37.95330059 116.80029768 -39.71501678 116.53334238 -42.44432068 114.4183197 C-44.26108543 111.959086 -44.51397904 110.71731963 -44.53125 107.6875 C-44.53640625 106.81609375 -44.5415625 105.9446875 -44.546875 105.046875 C-44.53140625 104.14453125 -44.5159375 103.2421875 -44.5 102.3125 C-44.51546875 101.41015625 -44.5309375 100.5078125 -44.546875 99.578125 C-44.50814491 93.03274018 -44.50814491 93.03274018 -42.203125 89.765625 C-39.28566523 87.84134303 -36.3853524 87.09373517 -33 86.3125 C-36.54662737 82.66612373 -40.10605742 79.20174544 -44.0625 76 C-51.20117102 69.83163378 -55.51485702 61.50565334 -56.25 52.12109375 C-56.57887191 42.59408549 -55.17641026 35.18027608 -49.375 27.5 C-44.68016704 22.55930297 -39.28714829 19.59581223 -32.46484375 19.0078125 C-29.29264601 19.00090891 -26.16368355 19.08935618 -23 19.3125 C-23.1546875 17.70375 -23.1546875 17.70375 -23.3125 16.0625 C-23 12.3125 -23 12.3125 -20.8125 9.875 C-17.84843876 8.22829931 -16.32351429 7.9326698 -13 8.3125 C-12.896875 7.36375 -12.79375 6.415 -12.6875 5.4375 C-11.2286066 -1.19383364 -5.53073065 -0.02174029 0 0 Z " fill="#F1F4F7" transform="translate(65,-0.3125)"/>
<path d="M0 0 C1.22976562 -0.02416992 1.22976562 -0.02416992 2.484375 -0.04882812 C3.27328125 -0.04947266 4.0621875 -0.05011719 4.875 -0.05078125 C5.59429687 -0.05376221 6.31359375 -0.05674316 7.0546875 -0.05981445 C9.56984653 0.42156325 10.46316428 1.29600157 12 3.3125 C12.1875 6 12.1875 6 12 8.3125 C13.258125 8.395 14.51625 8.4775 15.8125 8.5625 C18.68197513 8.93324634 19.74290589 9.09557684 22 11 C23.24575353 13.88080503 23.06806837 16.20262633 23 19.3125 C23.76183594 19.26609375 24.52367188 19.2196875 25.30859375 19.171875 C34.01272597 18.8676107 40.14233938 19.96919413 46.8125 25.75 C47.8953125 27.0184375 47.8953125 27.0184375 49 28.3125 C49.70125 29.034375 50.4025 29.75625 51.125 30.5 C55.39489147 36.90483721 57.06506811 44.70145147 56 52.3125 C53.04313222 65.87733976 46.18672665 74.48358729 35.625 83.125 C32.9683878 85.0417087 32.9683878 85.0417087 32 87.3125 C32.61488281 87.41046875 33.22976562 87.5084375 33.86328125 87.609375 C34.67152344 87.75890625 35.47976562 87.9084375 36.3125 88.0625 C37.11300781 88.20171875 37.91351563 88.3409375 38.73828125 88.484375 C41.76891085 89.59403558 42.55075727 90.40944279 44 93.3125 C44.47902111 96.29987043 44.50970557 99.2291408 44.5 102.25 C44.52835937 103.04857422 44.55671875 103.84714844 44.5859375 104.66992188 C44.58980469 105.8368457 44.58980469 105.8368457 44.59375 107.02734375 C44.60083984 107.72980225 44.60792969 108.43226074 44.61523438 109.15600586 C43.63365108 112.59661111 41.74285865 114.07388164 39 116.3125 C36.20818166 116.80327628 34.02768845 116.98916129 31.24389648 116.94360352 C30.47905945 116.95075882 29.71422241 116.95791412 28.9262085 116.96528625 C26.40722262 116.98214548 23.89002336 116.96279067 21.37109375 116.94140625 C19.61662143 116.94223513 17.86214919 116.94469522 16.10768127 116.94871521 C12.43491171 116.95157118 8.76275268 116.93689057 5.09008789 116.90942383 C0.38318866 116.87531586 -4.32262084 116.8813693 -9.02957249 116.9000864 C-12.65074239 116.91065537 -16.27165877 116.90172001 -19.8928051 116.88670158 C-21.62833847 116.88152022 -23.36389831 116.88200103 -25.09942818 116.88824654 C-27.52462838 116.89369868 -29.94826861 116.87332686 -32.37329102 116.84594727 C-33.44799904 116.85573608 -33.44799904 116.85573608 -34.54441833 116.86572266 C-37.95330059 116.80029768 -39.71501678 116.53334238 -42.44432068 114.4183197 C-44.26108543 111.959086 -44.51397904 110.71731963 -44.53125 107.6875 C-44.53640625 106.81609375 -44.5415625 105.9446875 -44.546875 105.046875 C-44.53140625 104.14453125 -44.5159375 103.2421875 -44.5 102.3125 C-44.51546875 101.41015625 -44.5309375 100.5078125 -44.546875 99.578125 C-44.50814491 93.03274018 -44.50814491 93.03274018 -42.203125 89.765625 C-39.28566523 87.84134303 -36.3853524 87.09373517 -33 86.3125 C-36.54662737 82.66612373 -40.10605742 79.20174544 -44.0625 76 C-51.20117102 69.83163378 -55.51485702 61.50565334 -56.25 52.12109375 C-56.57887191 42.59408549 -55.17641026 35.18027608 -49.375 27.5 C-44.68016704 22.55930297 -39.28714829 19.59581223 -32.46484375 19.0078125 C-29.29264601 19.00090891 -26.16368355 19.08935618 -23 19.3125 C-23.1546875 17.70375 -23.1546875 17.70375 -23.3125 16.0625 C-23 12.3125 -23 12.3125 -20.8125 9.875 C-17.84843876 8.22829931 -16.32351429 7.9326698 -13 8.3125 C-12.896875 7.36375 -12.79375 6.415 -12.6875 5.4375 C-11.2286066 -1.19383364 -5.53073065 -0.02174029 0 0 Z M-6 7.3125 C-6 10.2825 -6 13.2525 -6 16.3125 C-9.3 16.3125 -12.6 16.3125 -16 16.3125 C-16 19.6125 -16 22.9125 -16 26.3125 C-12.7 26.3125 -9.4 26.3125 -6 26.3125 C-6.33 29.9425 -6.66 33.5725 -7 37.3125 C-7.928125 36.425625 -8.85625 35.53875 -9.8125 34.625 C-15.96378576 29.39330039 -23.60666523 25.29588989 -31.87109375 25.828125 C-38.53702079 27.34477629 -43.16612981 31.89997738 -47 37.3125 C-50.16700279 42.74164764 -49.72771919 49.17502803 -48.34765625 55.125 C-45.28379218 64.59273445 -39.6520527 69.88305184 -32.3125 76.3125 C-26.49549449 81.50710986 -22.99420081 86.3588935 -22 94.3125 C-22.66386719 94.30089844 -23.32773437 94.28929688 -24.01171875 94.27734375 C-25.33623047 94.26380859 -25.33623047 94.26380859 -26.6875 94.25 C-27.55761719 94.23839844 -28.42773438 94.22679688 -29.32421875 94.21484375 C-32.41167679 94.25597642 -32.41167679 94.25597642 -37 95.3125 C-37 99.6025 -37 103.8925 -37 108.3125 C-12.91 108.3125 11.18 108.3125 36 108.3125 C36 104.0225 36 99.7325 36 95.3125 C29.07 94.8175 29.07 94.8175 22 94.3125 C23.27357047 85.25599889 26.82108999 80.87971448 33.6953125 75.01171875 C41.3233807 68.49564414 47.07129202 62.1754946 48.4609375 51.90625 C48.69356067 44.10442688 47.43158866 39.18503009 43.3125 32.625 C39.20639845 28.51889845 34.58982116 26.14323922 28.75 25.6875 C20.56542973 26.05694241 13.08674287 31.20319029 7 36.3125 C6.67 33.0125 6.34 29.7125 6 26.3125 C8.97 26.3125 11.94 26.3125 15 26.3125 C15 23.0125 15 19.7125 15 16.3125 C11.7 16.3125 8.4 16.3125 5 16.3125 C5 13.3425 5 10.3725 5 7.3125 C1.37 7.3125 -2.26 7.3125 -6 7.3125 Z " fill="#393B50" transform="translate(65,-0.3125)"/>
<path d="M0 0 C5.91205902 1.93670899 9.87300212 5.34498296 12.875 10.8125 C16.3264147 18.57818307 18.11408926 26.70995277 17.625 35.1875 C9.28864388 34.74874441 2.58314439 29.56941544 -2.875 23.625 C-7.26326797 18.5802903 -8.92780576 13.99705287 -8.75 7.3515625 C-8.375 5.1875 -8.375 5.1875 -6.3125 2.0625 C-3.375 0.1875 -3.375 0.1875 0 0 Z " fill="#383A4F" transform="translate(39.375,39.8125)"/>
<path d="M0 0 C3.50711322 2.51597253 4.82130601 3.96754583 5.5625 8.25 C4.13823406 17.74510625 -0.56778909 24.03345801 -8 30 C-16.06526807 35 -16.06526807 35 -21 35 C-21.63886418 24.09198571 -19.39128867 14.01527815 -13 5 C-8.74430948 1.04121812 -5.88434368 -0.69227573 0 0 Z " fill="#383A50" transform="translate(94,40)"/>
</svg>
