<?xml version="1.0" encoding="UTF-8"?>
<svg version="1.1" xmlns="http://www.w3.org/2000/svg" width="126" height="126">
<path d="M0 0 C4.73792967 3.59122624 8.81900325 8.0191724 10 14 C10.34669833 19.28551422 10.55544921 24.57590993 9.3671875 29.76171875 C9.18542969 30.86966797 9.18542969 30.86966797 9 32 C10.81260132 34.22931824 10.81260132 34.22931824 13 36 C14.51578428 39.03156857 14.24971927 41.87966614 14.3125 45.25 C14.36857422 47.20679687 14.36857422 47.20679687 14.42578125 49.203125 C13.91622882 53.74702374 12.77536938 55.47467873 10 59 C14.68376757 64.02834992 19.30594847 68.13855235 25.21484375 71.67578125 C27 73 27 73 28 76 C28.25257326 79.28727925 28.23124619 82.57901724 28.25 85.875 C28.270625 86.77347656 28.29125 87.67195313 28.3125 88.59765625 C28.34163376 93.52854522 28.30283016 97.03981044 25 101 C22.03508974 102.48245513 19.35217903 102.15191001 16.04345703 102.17700195 C14.97001038 102.18685875 14.97001038 102.18685875 13.87487793 102.19691467 C11.50252177 102.21665389 9.13022888 102.22831082 6.7578125 102.23828125 C5.94822964 102.24235678 5.13864677 102.2464323 4.3045311 102.25063133 C0.02056889 102.27149349 -4.26336125 102.28579526 -8.54736328 102.29516602 C-12.97509953 102.3062384 -17.40233431 102.34064699 -21.82989311 102.38033772 C-25.2322382 102.40646315 -28.63446299 102.41485413 -32.03689957 102.41844749 C-33.66920488 102.42332306 -35.30150448 102.43496466 -36.93371201 102.45348549 C-39.21777033 102.47779441 -41.50052031 102.47692794 -43.78466797 102.4699707 C-45.08435516 102.47583694 -46.38404236 102.48170319 -47.72311401 102.48774719 C-51.54550304 101.91880475 -52.72558162 101.06738581 -55 98 C-55.51757812 95.40625 -55.51757812 95.40625 -55.53125 92.5 C-55.53640625 91.448125 -55.5415625 90.39625 -55.546875 89.3125 C-55.53140625 88.219375 -55.5159375 87.12625 -55.5 86 C-55.51546875 84.906875 -55.5309375 83.81375 -55.546875 82.6875 C-55.53914063 81.1096875 -55.53914063 81.1096875 -55.53125 79.5 C-55.52673828 78.5409375 -55.52222656 77.581875 -55.51757812 76.59375 C-54.29661291 70.47510169 -47.26790728 67.29915352 -42.4609375 64 C-40.08318932 62.06760783 -39.07107579 60.82259972 -38 58 C-38.48678223 57.59458984 -38.97356445 57.18917969 -39.47509766 56.77148438 C-41.36647858 54.57426055 -41.38570855 53.51965698 -41.3984375 50.65625 C-41.40230469 49.82222656 -41.40617187 48.98820312 -41.41015625 48.12890625 C-41.39855469 47.26136719 -41.38695312 46.39382812 -41.375 45.5 C-41.38660156 44.63246094 -41.39820313 43.76492187 -41.41015625 42.87109375 C-41.40628906 42.03707031 -41.40242188 41.20304687 -41.3984375 40.34375 C-41.39505371 39.58255859 -41.39166992 38.82136719 -41.38818359 38.03710938 C-40.90508701 35.50191573 -39.83329017 34.73919644 -38 33 C-38.25783678 30.98887313 -38.61580002 28.99085446 -39 27 C-39.79628829 18.5103418 -38.98724083 12.06525784 -34 5 C-24.87552154 -5.47543279 -11.83649467 -6.65191436 0 0 Z " fill="#F0F3F7" transform="translate(76,14)"/>
<path d="M0 0 C4.73792967 3.59122624 8.81900325 8.0191724 10 14 C10.34669833 19.28551422 10.55544921 24.57590993 9.3671875 29.76171875 C9.18542969 30.86966797 9.18542969 30.86966797 9 32 C10.81260132 34.22931824 10.81260132 34.22931824 13 36 C14.51578428 39.03156857 14.24971927 41.87966614 14.3125 45.25 C14.36857422 47.20679687 14.36857422 47.20679687 14.42578125 49.203125 C13.91622882 53.74702374 12.77536938 55.47467873 10 59 C14.68376757 64.02834992 19.30594847 68.13855235 25.21484375 71.67578125 C27 73 27 73 28 76 C28.25257326 79.28727925 28.23124619 82.57901724 28.25 85.875 C28.270625 86.77347656 28.29125 87.67195313 28.3125 88.59765625 C28.34163376 93.52854522 28.30283016 97.03981044 25 101 C22.03508974 102.48245513 19.35217903 102.15191001 16.04345703 102.17700195 C14.97001038 102.18685875 14.97001038 102.18685875 13.87487793 102.19691467 C11.50252177 102.21665389 9.13022888 102.22831082 6.7578125 102.23828125 C5.94822964 102.24235678 5.13864677 102.2464323 4.3045311 102.25063133 C0.02056889 102.27149349 -4.26336125 102.28579526 -8.54736328 102.29516602 C-12.97509953 102.3062384 -17.40233431 102.34064699 -21.82989311 102.38033772 C-25.2322382 102.40646315 -28.63446299 102.41485413 -32.03689957 102.41844749 C-33.66920488 102.42332306 -35.30150448 102.43496466 -36.93371201 102.45348549 C-39.21777033 102.47779441 -41.50052031 102.47692794 -43.78466797 102.4699707 C-45.08435516 102.47583694 -46.38404236 102.48170319 -47.72311401 102.48774719 C-51.54550304 101.91880475 -52.72558162 101.06738581 -55 98 C-55.51757812 95.40625 -55.51757812 95.40625 -55.53125 92.5 C-55.53640625 91.448125 -55.5415625 90.39625 -55.546875 89.3125 C-55.53140625 88.219375 -55.5159375 87.12625 -55.5 86 C-55.51546875 84.906875 -55.5309375 83.81375 -55.546875 82.6875 C-55.53914063 81.1096875 -55.53914063 81.1096875 -55.53125 79.5 C-55.52673828 78.5409375 -55.52222656 77.581875 -55.51757812 76.59375 C-54.29661291 70.47510169 -47.26790728 67.29915352 -42.4609375 64 C-40.08318932 62.06760783 -39.07107579 60.82259972 -38 58 C-38.48678223 57.59458984 -38.97356445 57.18917969 -39.47509766 56.77148438 C-41.36647858 54.57426055 -41.38570855 53.51965698 -41.3984375 50.65625 C-41.40230469 49.82222656 -41.40617187 48.98820312 -41.41015625 48.12890625 C-41.39855469 47.26136719 -41.38695312 46.39382812 -41.375 45.5 C-41.38660156 44.63246094 -41.39820313 43.76492187 -41.41015625 42.87109375 C-41.40628906 42.03707031 -41.40242188 41.20304687 -41.3984375 40.34375 C-41.39505371 39.58255859 -41.39166992 38.82136719 -41.38818359 38.03710938 C-40.90508701 35.50191573 -39.83329017 34.73919644 -38 33 C-38.25783678 30.98887313 -38.61580002 28.99085446 -39 27 C-39.79628829 18.5103418 -38.98724083 12.06525784 -34 5 C-24.87552154 -5.47543279 -11.83649467 -6.65191436 0 0 Z M-29.30859375 10.57421875 C-31.86486181 14.36881736 -32.71177351 18.02483468 -32.5390625 22.578125 C-31.49409214 27.27291936 -28.73005997 31.10803951 -26 35 C-26.763125 35.28875 -27.52625 35.5775 -28.3125 35.875 C-31.15029308 36.96269013 -31.15029308 36.96269013 -34 39 C-34.36498034 41.89608399 -34.36498034 41.89608399 -34.1875 45.125 C-34.16042969 46.22070312 -34.13335937 47.31640625 -34.10546875 48.4453125 C-34.07066406 49.28835937 -34.03585938 50.13140625 -34 51 C-31.03 51 -28.06 51 -25 51 C-29.25473907 60.86098349 -34.25627538 69.70556352 -44.5625 73.9375 C-45.696875 74.948125 -46.83125 75.95875 -48 77 C-48 82.94 -48 88.88 -48 95 C-25.56 95 -3.12 95 20 95 C20 89.06 20 83.12 20 77 C15.55078626 72.6039465 15.55078626 72.6039465 11.96875 70.7109375 C4.85018196 66.60839434 0.51773518 60.48671927 -1.625 52.65234375 C-1.74875 52.10707031 -1.8725 51.56179687 -2 51 C0.64 51 3.28 51 6 51 C7.03888897 43.62295775 7.03888897 43.62295775 4.44140625 37.08984375 C2.3148723 35.55537493 2.3148723 35.55537493 -1 34 C-0.71125 33.45472656 -0.4225 32.90945312 -0.125 32.34765625 C2.57547451 26.8623174 4.23721655 22.12096609 3 16 C1.02508021 11.07143911 -1.9629976 7.01244865 -6.84765625 4.62890625 C-15.86486722 1.99411321 -23.32890984 3.38074826 -29.30859375 10.57421875 Z " fill="#35374D" transform="translate(76,14)"/>
</svg>
