<?xml version="1.0" encoding="UTF-8"?>
<svg version="1.1" xmlns="http://www.w3.org/2000/svg" width="126" height="126">
<path d="M0 0 C1.04484306 -0.00569504 1.04484306 -0.00569504 2.11079407 -0.01150513 C4.40237139 -0.01888612 6.69266718 0.00243329 8.98413086 0.02490234 C10.58165844 0.02728813 12.17918886 0.0281918 13.77671814 0.02767944 C17.11987957 0.0308031 20.46261083 0.04733582 23.80566406 0.07421875 C28.08859588 0.10822563 32.37105606 0.11584627 36.65410709 0.11432838 C39.95096835 0.11487245 43.24772674 0.12584497 46.54455376 0.14033127 C48.12378601 0.1466899 49.70302989 0.15063598 51.28227425 0.15211868 C53.48916573 0.15646017 55.69555946 0.17397793 57.90234375 0.1953125 C59.78500694 0.20674789 59.78500694 0.20674789 61.70570374 0.21841431 C64.71666745 0.47156319 66.40172713 0.82335546 68.88647461 2.48583984 C71.67571832 6.6810438 71.21740731 11.06079356 71.19897461 15.92333984 C71.21508789 16.76960938 71.23120117 17.61587891 71.24780273 18.48779297 C71.25156677 23.29446986 71.10909527 26.66333742 67.88647461 30.48583984 C65.40600586 32.50537109 65.40600586 32.50537109 62.69897461 34.29833984 C61.79791992 34.90291016 60.89686523 35.50748047 59.96850586 36.13037109 C59.28143555 36.57767578 58.59436523 37.02498047 57.88647461 37.48583984 C59.26019992 61.52645777 59.26019992 61.52645777 69.55444336 82.74365234 C71.39978708 86.54257109 71.32624416 89.81899883 71.26147461 93.98583984 C71.27307617 94.73220703 71.28467773 95.47857422 71.29663086 96.24755859 C71.27245235 100.80117738 70.80663682 103.78221948 67.88647461 107.48583984 C64.92156435 108.96829497 62.23865364 108.63774986 58.92993164 108.6628418 C57.85648499 108.67269859 57.85648499 108.67269859 56.76135254 108.68275452 C54.38899638 108.70249374 52.01670349 108.71415066 49.64428711 108.72412109 C48.83470425 108.72819662 48.02512138 108.73227215 47.19100571 108.73647118 C42.9070435 108.75733334 38.62311336 108.77163511 34.33911133 108.78100586 C29.91137508 108.79207825 25.4841403 108.82648684 21.0565815 108.86617756 C17.65423641 108.89230299 14.25201162 108.90069398 10.84957504 108.90428734 C9.21726973 108.90916291 7.58497013 108.9208045 5.9527626 108.93932533 C3.66870428 108.96363425 1.3859543 108.96276778 -0.89819336 108.95581055 C-2.19788055 108.96167679 -3.49756775 108.96754303 -4.8366394 108.97358704 C-8.65480403 108.40527337 -9.82317764 107.53065017 -12.11352539 104.48583984 C-12.98538511 101.19768318 -12.87361635 97.87788582 -12.86352539 94.48583984 C-12.86465332 93.54119873 -12.86578125 92.59655762 -12.86694336 91.62329102 C-12.62536516 83.93305159 -10.81529335 80.03290948 -6.01977539 74.01318359 C-3.01195239 70.02535269 -2.59956248 66.35900114 -2.11352539 61.48583984 C-1.93343855 60.01421419 -1.75092526 58.54288445 -1.56665039 57.07177734 C-0.86515269 51.28800387 -0.86515269 51.28800387 -0.29003906 45.49072266 C-0.13460404 43.72525602 0.06943228 41.96421171 0.28100586 40.20458984 C0.13902195 37.26123923 0.13902195 37.26123923 -2.48461914 35.22021484 C-3.4965332 34.56537109 -4.50844727 33.91052734 -5.55102539 33.23583984 C-11.05066825 29.61155413 -11.05066825 29.61155413 -12.11352539 27.48583984 C-12.43440823 23.70104701 -12.43784104 19.90755815 -12.48852539 16.11083984 C-12.5259082 15.05638672 -12.56329102 14.00193359 -12.60180664 12.91552734 C-12.6134082 11.89974609 -12.62500977 10.88396484 -12.63696289 9.83740234 C-12.65678223 8.90750488 -12.67660156 7.97760742 -12.69702148 7.01953125 C-11.22782813 0.63991257 -5.70675688 -0.0129504 0 0 Z " fill="#3B3D52" transform="translate(33.113525390625,7.51416015625)"/>
<path d="M0 0 C5.61 0 11.22 0 17 0 C17 3.3 17 6.6 17 10 C19.64 10 22.28 10 25 10 C25 6.7 25 3.4 25 0 C31.27 0 37.54 0 44 0 C44 3.3 44 6.6 44 10 C46.31 10 48.62 10 51 10 C51 6.7 51 3.4 51 0 C56.61 0 62.22 0 68 0 C69.31050246 11.89533005 69.31050246 11.89533005 68 16 C65.7316058 17.97849402 63.93010935 19.29636888 61.375 20.75 C58.8510878 22.24218452 56.73923439 23.61079956 55 26 C54.03953367 31.01253846 55.15139602 35.95913375 56.10546875 40.90234375 C57 46 57 46 57 57 C41.82 57 26.64 57 11 57 C11 45.8838897 11 45.8838897 11.89453125 41.78125 C13.40637791 33.92288979 13.40637791 33.92288979 13 26 C10.87243686 22.98411988 7.9197214 21.41580191 4.75439453 19.63525391 C2.26282487 18.12535589 0.28888458 16.90279255 -0.62451172 14.04833984 C-1.17066623 9.19134996 -0.54485164 4.94557644 0 0 Z " fill="#F2F5F8" transform="translate(28,16)"/>
<path d="M0 0 C0.95189209 -0.03865677 1.90378418 -0.07731354 2.88452148 -0.11714172 C7.27168403 -0.25437883 11.65874926 -0.35332755 16.04736328 -0.43066406 C18.35627914 -0.48227893 20.66480012 -0.55720377 22.97216797 -0.65625 C42.84387936 -1.49411055 42.84387936 -1.49411055 48.1015625 2.50561523 C55.04786939 10.62098122 53.53125 16.22527675 53.53125 27.30395508 C31.09125 27.30395508 8.65125 27.30395508 -14.46875 27.30395508 C-14.46875 11.552005 -14.46875 11.552005 -10.03125 6.49145508 C-9.20753906 5.51563477 -8.38382813 4.53981445 -7.53515625 3.53442383 C-4.64949623 0.41965659 -4.227562 0.17075767 0 0 Z " fill="#F3F6F9" transform="translate(42.46875,80.696044921875)"/>
</svg>
